<?xml version="1.0" encoding="utf-8"?>
<!-- Generator: Adobe Illustrator 24.0.1, SVG Export Plug-In . SVG Version: 6.00 Build 0)  -->
<svg version="1.1" id="katman_1" xmlns="http://www.w3.org/2000/svg" xmlns:xlink="http://www.w3.org/1999/xlink" x="0px" y="0px"
	 viewBox="0 0 48 48" style="enable-background:new 0 0 48 48;" xml:space="preserve">
<style type="text/css">
	.st0{fill:none;stroke:#000000;stroke-miterlimit:10;}
</style>
<path class="st0" d="M17.5,12.5h4l3,5l3-5h4l4,9v-9h0c1.66,0,3-1.34,3-3v-4c0-1.66-1.34-3-3-3h-22c-1.66,0-3,1.34-3,3v4
	c0,1.66,1.34,3,3,3h0v9L17.5,12.5z"/>
<circle class="st0" cx="13" cy="30" r="4.5"/>
<circle class="st0" cx="25" cy="24" r="4.5"/>
<circle class="st0" cx="36" cy="30" r="4.5"/>
<path class="st0" d="M4.5,43.5"/>
<path class="st0" d="M6.5,40.5l0.66-1.32c0.82-1.64,2.5-2.68,4.34-2.68h0l1.39,2.77c0.25,0.51,0.97,0.51,1.23,0l1.39-2.77h0
	c1.76,0,3.3,1.2,3.73,2.91l0.27,1.09"/>
<path class="st0" d="M17.75,33.82l0.66-1.32c0.82-1.64,2.5-2.68,4.34-2.68h0l1.39,2.77c0.25,0.51,0.97,0.51,1.23,0l1.39-2.77h0
	c1.76,0,3.3,1.2,3.73,2.91l0.27,1.09"/>
<path class="st0" d="M28.75,39.82l0.66-1.32c0.82-1.64,2.5-2.68,4.34-2.68l0,0l1.39,2.77c0.25,0.51,0.97,0.51,1.23,0l1.39-2.77h0
	c1.76,0,3.3,1.2,3.73,2.91l0.27,1.09"/>
<circle class="st0" cx="18" cy="7" r="0.5"/>
<circle class="st0" cx="24" cy="7" r="0.5"/>
<circle class="st0" cx="30" cy="7" r="0.5"/>
</svg>
